<mxfile host="Electron" agent="Mozilla/5.0 (Windows NT 10.0; Win64; x64) AppleWebKit/537.36 (KHTML, like Gecko) draw.io/24.7.17 Chrome/128.0.6613.36 Electron/32.0.1 Safari/537.36" version="24.7.17" pages="4">
  <diagram id="TAZlNpyzT57UB132Z_Th" name="architecture">
    <mxGraphModel dx="1632" dy="1217" grid="1" gridSize="10" guides="1" tooltips="1" connect="1" arrows="1" fold="1" page="1" pageScale="1" pageWidth="850" pageHeight="1100" math="0" shadow="0">
      <root>
        <mxCell id="esbHECSBwcRWjfnft_Ba-0" />
        <mxCell id="esbHECSBwcRWjfnft_Ba-1" parent="esbHECSBwcRWjfnft_Ba-0" />
        <mxCell id="mIRVLuz2eT2DxwGKe86q-0" value="" style="rounded=0;whiteSpace=wrap;html=1;dashed=1;strokeWidth=3;strokeColor=#0000CC;container=0;" parent="esbHECSBwcRWjfnft_Ba-1" vertex="1">
          <mxGeometry x="-685" y="140" width="500" height="320" as="geometry" />
        </mxCell>
        <mxCell id="mIRVLuz2eT2DxwGKe86q-4" value="" style="rounded=0;whiteSpace=wrap;html=1;dashed=1;strokeWidth=3;strokeColor=#0000CC;" parent="esbHECSBwcRWjfnft_Ba-1" vertex="1">
          <mxGeometry x="-830" y="140" width="130" height="320" as="geometry" />
        </mxCell>
        <mxCell id="mIRVLuz2eT2DxwGKe86q-42" value="" style="edgeStyle=orthogonalEdgeStyle;rounded=0;orthogonalLoop=1;jettySize=auto;html=1;" parent="esbHECSBwcRWjfnft_Ba-1" source="mIRVLuz2eT2DxwGKe86q-13" target="mIRVLuz2eT2DxwGKe86q-37" edge="1">
          <mxGeometry relative="1" as="geometry" />
        </mxCell>
        <mxCell id="mIRVLuz2eT2DxwGKe86q-13" value="Feeds API" style="shape=hexagon;perimeter=hexagonPerimeter2;whiteSpace=wrap;html=1;fixedSize=1;fillColor=#d5e8d4;strokeColor=#82b366;" parent="esbHECSBwcRWjfnft_Ba-1" vertex="1">
          <mxGeometry x="-515" y="360" width="100" height="80" as="geometry" />
        </mxCell>
        <mxCell id="mIRVLuz2eT2DxwGKe86q-41" value="" style="edgeStyle=orthogonalEdgeStyle;rounded=0;orthogonalLoop=1;jettySize=auto;html=1;" parent="esbHECSBwcRWjfnft_Ba-1" source="mIRVLuz2eT2DxwGKe86q-14" target="mIRVLuz2eT2DxwGKe86q-38" edge="1">
          <mxGeometry relative="1" as="geometry" />
        </mxCell>
        <mxCell id="mIRVLuz2eT2DxwGKe86q-45" value="Publish" style="edgeStyle=orthogonalEdgeStyle;rounded=0;orthogonalLoop=1;jettySize=auto;html=1;curved=1;" parent="esbHECSBwcRWjfnft_Ba-1" source="mIRVLuz2eT2DxwGKe86q-14" target="mIRVLuz2eT2DxwGKe86q-40" edge="1">
          <mxGeometry relative="1" as="geometry">
            <Array as="points">
              <mxPoint x="-335" y="200" />
            </Array>
          </mxGeometry>
        </mxCell>
        <mxCell id="mIRVLuz2eT2DxwGKe86q-14" value="Tweets API" style="shape=hexagon;perimeter=hexagonPerimeter2;whiteSpace=wrap;html=1;fixedSize=1;fillColor=#d5e8d4;strokeColor=#82b366;" parent="esbHECSBwcRWjfnft_Ba-1" vertex="1">
          <mxGeometry x="-515" y="160" width="100" height="80" as="geometry" />
        </mxCell>
        <mxCell id="mIRVLuz2eT2DxwGKe86q-17" value="HTTP POST" style="edgeStyle=orthogonalEdgeStyle;rounded=0;orthogonalLoop=1;jettySize=auto;html=1;entryX=0;entryY=0.5;entryDx=0;entryDy=0;fontSize=11;" parent="esbHECSBwcRWjfnft_Ba-1" target="mIRVLuz2eT2DxwGKe86q-14" edge="1">
          <mxGeometry x="0.4237" y="10" relative="1" as="geometry">
            <Array as="points">
              <mxPoint x="-665" y="300" />
              <mxPoint x="-665" y="200" />
            </Array>
            <mxPoint x="-710" y="300" as="sourcePoint" />
            <mxPoint as="offset" />
          </mxGeometry>
        </mxCell>
        <mxCell id="mIRVLuz2eT2DxwGKe86q-19" value="HTTP GET + SSE Events" style="edgeStyle=orthogonalEdgeStyle;rounded=0;orthogonalLoop=1;jettySize=auto;html=1;entryX=0;entryY=0.5;entryDx=0;entryDy=0;fontSize=11;" parent="esbHECSBwcRWjfnft_Ba-1" target="mIRVLuz2eT2DxwGKe86q-13" edge="1">
          <mxGeometry x="0.4237" y="-10" relative="1" as="geometry">
            <Array as="points">
              <mxPoint x="-665" y="300" />
              <mxPoint x="-665" y="400" />
            </Array>
            <mxPoint x="-710" y="300" as="sourcePoint" />
            <mxPoint as="offset" />
          </mxGeometry>
        </mxCell>
        <mxCell id="mIRVLuz2eT2DxwGKe86q-37" value="FeedsDb" style="shape=image;verticalLabelPosition=bottom;labelBackgroundColor=#ffffff;verticalAlign=top;aspect=fixed;imageAspect=0;image=https://cdn.icon-icons.com/icons2/2415/PNG/96/mongodb_original_wordmark_logo_icon_146425.png;" parent="esbHECSBwcRWjfnft_Ba-1" vertex="1">
          <mxGeometry x="-495" y="500" width="60" height="60" as="geometry" />
        </mxCell>
        <mxCell id="mIRVLuz2eT2DxwGKe86q-38" value="TweetsDb" style="shape=image;verticalLabelPosition=bottom;labelBackgroundColor=#ffffff;verticalAlign=top;aspect=fixed;imageAspect=0;image=data:image/png,iVBORw0KGgoAAAANSUhEUgAAAOEAAADhCAMAAAAJbSJIAAAAflBMVEU3Za////8yYq4lW6swYa0qXqwfWKoaVqknXKvW3u2Sp8/3+fxsisHL1eeWq9Hi6PI4aLGMoszAzOOdsNRggLvm6/Tx9Pmuvdu4xuCktdZHcLTQ2eqFncrt8fdTeLhjg715lMVKcrXF0OVqicB9l8cATaaywdwOUqerutlzkMPtaF/GAAAPTUlEQVR4nO2d6ZqjKhCGZVVjJ5p9XzvTk9z/DR5c4goIikufZ75f5/R0J7wCVUVRoAX+77KGbkDn+kf4+/WP8PfrH6EJef7jZ3b6utwPQXB/Lxe+18OXpuqa0N+eLoQih2AMIbQgxARR53L68Tv+4lRdEm52N0aDoVURJA61r8tjH53ZHeHuihCuwuUxKf7erjtrQKKOCN0TRZy+qwg7djBzu2lDok4IFxdKFPDSrjwsO5yVHRBuA6XuK0Dal535hsQyTri1dPliSIRnG9NtiWSYcBGgBnixCJ2fzbYmklFC90Kb9F/GaJ/MM5okPLXjS/rRtI80R/gg6vZTxoi2xpoUyRjhjZrgC4UuRn2HIUI3MNKBsaA9MdOqSGYIZ+1nYEHkYC7OMUG4WTV3EQJBe2agYZEMEB6xNMBuKLQy5DjaE+6NmZiisPMwwGeA8N0RIJM9HwGhdzFoQytyLgZC1XaEvtXFFMyE0XRYwmmjZYSW7OWQhFu7az4m+jUc4bI7G5MXObRzG80JJ/0AMu/vHAchfBqPY8SyXwMQvnsEZJPx2Tvh1ekTsJVnbEZ47dLPc4Vh00VjI8JV74DhaqNhvrEJYf89GKnhurgBYd9zMBW69kP4NRQgc/6rPgjfwwEyxLt+rlGX8DYkIDOpgbbX0CQ89erouYi6Uaoe4XxoQOY1sKZj1CLsaTUhFyR6iDqE+z7Wg/WCVCuZqkH4Mw5AJqqT21AnXIwGkIU3iw4Ip2OYg6k0glRVQndUgAxReQ9OkdAf3k2UpIyoRrh2Ok8baovuDRJurPEBKqdSlQgv3Wa2m4oqIaoQPoeNtsWyVQaqAuFrZGY0J6pgbuoJpyPy9BUp+MVawvVYh2is+uimlvAwRjOak10Xo9YRfg+TV9NQ3UqjhnA2ulimIkjkZcZywsV4zWgmCKW5GynhuidASG2bNg8M8aEpoRf0Y2VgWAHlv5qXbhJZqlhGeO0pWENrEI2z46XpmEGSuhQJ4aQnKwOvYPGHnsL80g5h2Kgj7Z8GhL1ZGXwDW2QR+s0Y3a/VgTSZkmKfISTsy8owBcALkfBnOeTuV1R3gkAsMqhCwnt/sQxagGMU/KKvqbuOdib8q+4DxqJdGxFhrysm7IF9NOkxotS2TuGIe2DNaAoJthcFhLteXX34/FfZuMT0cmS+6qnZBptfy8gnPPccrKEZ2MRfGZfDQ/uLTauHZlEZfyryCXtPW7Dnvw3nBVzO4umBKVv5ne9aI5U/FbmEy/7jbeiB8KmSOeu5+Cf0xlrypdUS7pKfR+gPsKp39mASdhjrzM+3O/eN7oYl4iwzeISXARa9LLCJ0upwtUtHJrbWmoi8ccohfA2yJqQeiAJ9mJt60dJPa1+dVvM2VcLNMGtCZxcP04IgPmuaPVgpZagSvodJ/8IVb/cHBuyR6zSInGoJj0Mt6+01L+sVzqyjjuWzy3vgFcLBcmtkEi4xKkIsHJ9oTEVcXg2XCX+GSz05Hvfx/vX1Hns5vVgmDMy1WFfM2/ucKQLveuMUXqSEvHHSm2wXuJzxGB65vGlYm1IdQ4lwwC60opBkxRmPGHA7VyS4khDuhk0AI645tZwX4JKLZLtiwh4X9hyxGcTtK3hgKymNTsRvIeHABRfM1FTDmlD0qGdO0VlEOFA4kzbsAfgNwF96bowsBYSbgbdh7I0owUdZBK6zGIYCwv3Qm6Hp6resMNpcarQu7zDyhANvhjJD8yOioBvg6YRuTy7hEEv7vOA3eEW5Gs6TJjMgsEKCz+ISzgbe7mWEYTYKHjxO3MGa7GlY+twwzREOvWPPYpEw4qA+WFafNfoBYK7eBWTOIdQJjLpREDrkMObipBnCpbDWVgqH8DW0JbVoOBDDEA08q34R7dhMtJWHmX2uEupEft2IhS73sIjb5Rk9GHgATK+qm1LOrkLoDV/6xAzmy2F+YfbgdWK8ePefthJjNhFTQpGz7VNB6PTYGL1zE37YmYcWcq208Zatg1NCHW/TlZjBfLAGXe0pP4Ih1Jr54caYwoTCXplwiER3RQ4LXVibIEzSw1UR+3sDzpd6q0jXJcKho+5YMDx7z8JjfBGnZnDkGmtHKnqUCKejILQgel/ClpAreAqnDb16YFdnGMm2RMgJI4ZRchkoWXniGAuTRe35DzIpEX6PrZQbHxbchw4JotQiL7CVI6bLiw/hWLowE4T7aidCep9Nk3CF4zNzwt9Fwh6rZ5QFg3kF8RBbSM+fbr9q/vpSJByDv6+q2kmEOZPFPLApcmqmFTwUCffjG6VchSvhxR8l1x0UCeuybGx629x7cwml6qWhkJSUfivE+Z+mH0ccpsJHhEUzR0tlGQSLhPKIBjqTxxqsF9Vrr+jc3Xjuz1VlkCNync+KOkWIGDn35yT76fOA4mcGl/v9/lVc8dOwClHpjr8iYc0g/URAt9Lvoc/dOPXulFi76ln6c2jg6Pe0/C+bbXQPI4l+XsppRDe5nGvvGIPFUXqWRghOdvim1Ors6r+6LR3yDTgKTTjll4aGhXVcQosE4RKj7nKOki2VO4vclWKvwufa2bO/yocN5Jdi+zT/lIpiK3I+IXOKl0ftBSv4s6Fvfb6pljAakIV8V7zK3EQb519yUxXlJsD5iopijUTxU9oH2U/fcU00EhGGjIdjTebMKcalKn14ir4un++iEdvLVSCMP4JTTZYMpm0+A0OiDt9ICMPavtNZ/o3HAuFZhXBfehY4vkmNpISRMyg+WJz8KP4+TkY22c4sPqC/IZknHKWxnMtR5jTopkC4kVqamHBOol/NQnQatfrx5zNK4deEqTAh8XO/XO7Zj/QIo/ntYTkhW0QexG1OTWlCKE9DJYTxSbi03iYZXyv7Q0gio1iIjuJlKAOLCTmpCSkhlhJKj+7iryKhYN+uSOjco1/9THAUAbuUfgjjuV3wjCg6OzchlhP9h2875bhFTgikhDKR1MMlhFK79Bml8WZAulUZ/eEbKxEmIOv9bBlpcrvEsV5XhJmHSwil6eAPYdKauDFxGMBCBSVCy6nUm3m7MG7pitBOK6ITQmm9yocwKXKI7QX6OI+UkMgILedQPe35JF0RZoYmXT3JDG9KGBc5RK4l9vbhrmXWhz8yQgsidJ3HY3S5TxJhV9gRYXXvSboCTgktev50uL3+PBhVQiu3enJofN/TzumIEC3KhNKgJiOMH41LP8Y4nL0ahDnFxbxTlCOEOBTMCCFsTEizepPPKkqtD8NaZRCuJmNvH5VQZYQ7DUKnQgiv8xNTgA0QhtV+ZULZ2iBH6ESVKgsae/tLsQ/bEVpW9EHenbQnzE1DpYxwjjDxgk4uvCkT5m2WmDA+wpMSRr+SbL6vHBqhkmQeNjjegjjVJrLi5zwhikOzuN9xgTBe6bl/nCzj8jfzh7QgO67kDatLov/YWNRxnD/xYvgdPSpmsuPjE65lF/8YY4SgA6G4U2gGmO09SR5UnjC3lE0WlTRbH8YH617LVDM/IXQWbkFJMTYLND47KIsX0zJXkLZ10sG2Lv7t+zY9rhaHy0LU5kLpXkooybYVRilNT4glUUJGiFf8Ww0ZIeWemY/P4fKPRp6jccu99mJuT05o89qfRU4c5f8sJdyJfX6BMO3Ez9ZIrg8xL9skJPTjDB3EvKst9nG2jb4518/N6WyOH+7WFQ1TJ9+KbB//r5CQ/Kx9f/3ZJsD3B/uAc7pKQg/2r+fEFiNynbx2qX7WCSGa+kU9lpe06AAF8527Podau8dFNFLdZCmN6eG23z3yOr6d0xP+zN47wbAT1ZdK8hAkmt+f/4PIZnYje34o/NfU2cAoi5soszSoaCwoKiQDSGaIEIovRjwHyRdCTJxidocFO8xyE+EhU/rgEy462LqIv0uzRADGeZGN3uHD/AcAPiFovZGPS5k0lPiEmixVVcmRie9mLSrlJ3OEbasx8Hv6KCq2Eg2OipHvUDU5WJFKVi1HuG5ZM0T4h6m9JlUe8BOE6wuXXqaQr6DVHk1FEe7lFI+g3adqq3y7Qp6wZak+fq5LLmG6mweG3wRVq/KhoGKtfsOB/xGmZZfg9L/xSsun8ovnLYav3mur/MqQQzi+mhNtVa+nLRIOXyfcUrB6mLt0dk3nFNwYVTkjWyHs+0IMwyK3CmDlDKnOyZTxyeGsNSsnnXu636sTcUsCKoSjvupSroqz5xOC0y8pj6qKnyrh3IvxW80p4l+6yyEc193kysLcMcq/vUXjfNGIhAQvvuDeMTT0Ga8moqLLaLmEvzB4q+4xSwl7vszMgKpLihrC8V7hLRDvgig5Ibj/Kp8huxFaRKh1sc/Qkl1fKr4Z8het94WXQsoJf4+1yVWW6BGC2S9BpPK3I8nuES5XdY9TdffOS2+7HuJNjroSXVuqRvgLfAa/Ql6dsK8bvRtLUCGvTgjODbdH+pJoQaFOCNajRlR5PVnt+y387t+f3lhKL0SqfwuLP8J3PcVyONnRJoTAHWkvitIW+oQjHaiQl/5tSAjcMQ5UpPieRyXCMfYiPdY3W4MQ+GNzGpWt3raEY/OLHbzhEazH9P48+lIGVCfMCs2Gl9pL87QJowrsUYiKjp22JQRe7fHiXoSEyd/WhONYEqvFak0JwffgmWLnq76VbQjBe+BShvo1fVtCcBo0A0ekqVEzhGAyICJRW060JBzwFeuK66XWhGCnfn2hWcAD/zyHeULgc+7G6QHw3gSwGSHz/f17jYaADQkHMKnk0gywMSHY9lve3MBNtCUELu5xMkrfUtkVYYtDLdpC7/rmdEDIQrieJiPVW00YJATLXhC1FryGCcG0B3sjecdoD4S6r7fTF1ROG3ZECMCt05GKLfkufR+ExTueDMtp6ueNEgI/6GqktjKiiUwQduU2oOCyOj2ZIQS7uss2G4gEbadgJEOE4HwxncCh79ZTMJIpwvDFkCa7ESP1nQm5zBGC89Wc+0er+iILRRkkBGBhyKhipLHzUiejhGG1nwFGehVX/OrLMCE4K76dQSzHqinF05RpwvANFG36kaCZGROayjwhAOs5aljagO2TWoGFhrogBMDbB6qvS8n3H32anICJuiFkOj6ploOEhJ464OuQkOlxg6pTEtPDy/D8+6hLQqbpHNLa++EJok+FIsOG6pgQhDdjvQNGKTA92KHBvDs80AdhqPXudKDUIbnehBCzvkPXl5EFhET9EIby3N3kGnyuzICH63O56JouVH+EsTzfdX1/3ZFV4alvwv71j/D36x/h79d/kU3ocLwtG80AAAAASUVORK5CYII=;" parent="esbHECSBwcRWjfnft_Ba-1" vertex="1">
          <mxGeometry x="-505" y="20" width="80" height="80" as="geometry" />
        </mxCell>
        <mxCell id="mIRVLuz2eT2DxwGKe86q-47" value="&lt;div style=&quot;font-family: &amp;#34;consolas&amp;#34; , &amp;#34;courier new&amp;#34; , monospace ; font-size: 14px ; line-height: 19px&quot;&gt;&lt;span style=&quot;color: #a31515&quot;&gt;&quot;tweet-created&quot;&lt;/span&gt;&lt;/div&gt;" style="edgeStyle=orthogonalEdgeStyle;curved=1;rounded=0;orthogonalLoop=1;jettySize=auto;html=1;" parent="esbHECSBwcRWjfnft_Ba-1" source="mIRVLuz2eT2DxwGKe86q-40" target="mIRVLuz2eT2DxwGKe86q-43" edge="1">
          <mxGeometry x="-0.7647" y="62" relative="1" as="geometry">
            <mxPoint as="offset" />
          </mxGeometry>
        </mxCell>
        <mxCell id="mIRVLuz2eT2DxwGKe86q-40" value="" style="shape=image;verticalLabelPosition=bottom;labelBackgroundColor=#ffffff;verticalAlign=top;aspect=fixed;imageAspect=0;image=https://miro.medium.com/v2/resize:fit:1400/1*ebK75QCh_mXBRx6VQjcebg.png;" parent="esbHECSBwcRWjfnft_Ba-1" vertex="1">
          <mxGeometry x="-365" y="50" width="155.22" height="40" as="geometry" />
        </mxCell>
        <mxCell id="mIRVLuz2eT2DxwGKe86q-48" value="&lt;div style=&quot;font-family: &amp;#34;consolas&amp;#34; , &amp;#34;courier new&amp;#34; , monospace ; font-size: 14px ; line-height: 19px&quot;&gt;&lt;span style=&quot;color: #a31515&quot;&gt;&quot;feed-updated&quot;&lt;/span&gt;&lt;/div&gt;" style="edgeStyle=orthogonalEdgeStyle;curved=1;rounded=0;orthogonalLoop=1;jettySize=auto;html=1;entryX=0.5;entryY=0;entryDx=0;entryDy=0;" parent="esbHECSBwcRWjfnft_Ba-1" source="mIRVLuz2eT2DxwGKe86q-43" target="mIRVLuz2eT2DxwGKe86q-44" edge="1">
          <mxGeometry x="0.6667" y="62" relative="1" as="geometry">
            <mxPoint as="offset" />
          </mxGeometry>
        </mxCell>
        <mxCell id="mIRVLuz2eT2DxwGKe86q-50" value="Update" style="edgeStyle=orthogonalEdgeStyle;curved=1;rounded=0;orthogonalLoop=1;jettySize=auto;html=1;entryX=1;entryY=0.25;entryDx=0;entryDy=0;" parent="esbHECSBwcRWjfnft_Ba-1" source="mIRVLuz2eT2DxwGKe86q-43" target="mIRVLuz2eT2DxwGKe86q-37" edge="1">
          <mxGeometry relative="1" as="geometry" />
        </mxCell>
        <mxCell id="mIRVLuz2eT2DxwGKe86q-43" value="UpdateFeed&lt;br&gt;Handler" style="shape=hexagon;perimeter=hexagonPerimeter2;whiteSpace=wrap;html=1;fixedSize=1;fillColor=#d5e8d4;strokeColor=#82b366;" parent="esbHECSBwcRWjfnft_Ba-1" vertex="1">
          <mxGeometry x="-337.39" y="260" width="100" height="80" as="geometry" />
        </mxCell>
        <mxCell id="6H_Da1Hu3SYQ_v4gJBpn-1" style="edgeStyle=orthogonalEdgeStyle;curved=1;rounded=0;orthogonalLoop=1;jettySize=auto;html=1;entryX=0.625;entryY=1;entryDx=0;entryDy=0;" parent="esbHECSBwcRWjfnft_Ba-1" source="mIRVLuz2eT2DxwGKe86q-44" target="mIRVLuz2eT2DxwGKe86q-13" edge="1">
          <mxGeometry relative="1" as="geometry" />
        </mxCell>
        <mxCell id="mIRVLuz2eT2DxwGKe86q-44" value="" style="shape=image;verticalLabelPosition=bottom;labelBackgroundColor=#ffffff;verticalAlign=top;aspect=fixed;imageAspect=0;image=https://miro.medium.com/v2/resize:fit:1400/1*ebK75QCh_mXBRx6VQjcebg.png;" parent="esbHECSBwcRWjfnft_Ba-1" vertex="1">
          <mxGeometry x="-365" y="520" width="155.22" height="40" as="geometry" />
        </mxCell>
        <mxCell id="mIRVLuz2eT2DxwGKe86q-49" value="Client" style="shape=image;verticalLabelPosition=bottom;labelBackgroundColor=#ffffff;verticalAlign=top;aspect=fixed;imageAspect=0;image=https://cdn4.iconfinder.com/data/icons/logos-3/600/React.js_logo-512.png;" parent="esbHECSBwcRWjfnft_Ba-1" vertex="1">
          <mxGeometry x="-800" y="260" width="80" height="80" as="geometry" />
        </mxCell>
        <mxCell id="6H_Da1Hu3SYQ_v4gJBpn-0" value="" style="shape=image;verticalLabelPosition=bottom;labelBackgroundColor=#ffffff;verticalAlign=top;aspect=fixed;imageAspect=0;image=data:image/png,iVBORw0KGgoAAAANSUhEUgAAAMYAAAD/CAMAAACdMFkKAAABAlBMVEWMxef///8AAAC4k3+Iw+aGwuaPx+iLxui12e+5kXv5/P61jnn1+v3m8/qSyOnr9fuczeqq1O3S6PXa7Pew1+7K5PTV6fak0ezg7/iYy+nC4PK93fH19fXIyMhycnJaWlqDuNgZIymzs7Pr6+vV1dVlZWU2NjbY2NgXFxeQwd6jrLS0l4jbyb/18O13qMU6UV9mj6gjMjtehJtvnLeAgIASEhImJiZDQ0O6urqjo6OYeWmatcewnJLm2dPTvbKkq7KsoZzIqpnNtKZLanwsP0pFYXJKaHqVlZU7OztMTEx8fHycnJxeXl5tbW1ANTBVQDVrUkSAZlksIx4cFhOds8SrxNMCnzFJAAAQNElEQVR4nN2de0PbthbAnUS2E8ex8zJ50jJYaWkI9AUbK7RA19u1W2/bjX3/r3Jt52Fb5+jhRxL5nj86Bomkn3QkHR0dSVqleLFst9XreuNJPSFjr9tr2Za1gRwrWqGp2UNvMmgbRNd1gon/e23U7k/2Wnah+RaHYffGnaD8fmE1vgQ4hDh9b1hcwxSCYe/VRwGAoPw0ja63671imiU/hjtua2kRYihae9zaOYY7drIixFHqefUrD4bttXMirFH0UT1Xm2THaHXEvTkNCWl3szdJRgyr29YLZFiA+MrlbhXDcwqHWJCQTjbdyoBhjTV9EwwLEH0w3ApGd7Q5iBAkS4ukxRgWNTjxQPR+2kkxHYbb3zxECKKN041aqTA8YysQgeij3oYw3MFmO0VSiF5PoVnyGJ62taZYgqRoEFkMu7PNplhykLpsD5HE6DlbboolSFty7JXD8LYzQCEcxl5hGFZ/+woVgUgplgTGdkcoIHpHYsQSY7RGO1KolZC22O4VYgy3Pc4iHIbQWhRh7G1v4uZxiGYQAUZ3p91iLUQTDFh8jK4CTbEQ0pXCsL1+23FGg/54z12PcOpQxDksd2/cH4wcp9337ASGWycLP03ooDQGk+7QdYcTNTRqKfpk6LaG3cnAWLkmA+/j0n4MMYZUPw5YTG1XMzdL/PIQ4JskTmuF0VOtwGmEkOECwzV2XZRcQjQ7xOjE28I0d1aeFJIoJekEGMNYRzb8HhH8o7YYVCH1oY8xiBrDOPvw+8vzFzsoWSp5df7y9w8HUVcgg4rmxlTqVTWUj2p3lvNFKV/FOFzNi3TqQ3UpmsJqZR6sSvlqXUrd0/qr1jDPVn//XWEKzSQvV+U8WP2O9LXR6mdjqVLVZwfY15WRqLpfr9VqpDnrP79eNZbaXUMzVsp/tv6VE7WGtlS6n5SfOg4uFgWNBqe2Fk1+S636oHhj+HX/MSzoi3VB/b4RXxiFQ9lrycYI9+vX/8kusXQkv2G8CMr5n6i69a5mxz/wMd7/+Xlr7f641/LN+e6k085qDftFN/x09vx0Wnvjzkhu3R928rjSGJZWGcdXFa/Pz6VyH03iW8CW2+076UmCZGKLtCBWoy6VDDk/j+uM7tGmoamJpz5C2nvQBWb3Oul8KMTBdsOlNqnNhG24MA0rVjtd9m3Wstity7tRiDNmeJ8sL51jLKAIl01pvOVEm3CceK2OXAkI4W0d2/UUCqr3rcpqLT6R1QcyEni+ujKud+HORU+2QYg2Dr+grb4n1SCkI/RDumIVJWKvrDuQ4tDby1pdOXgsmQaR8m7bIsWSSsXqSxTHmKxSitxtLWEFkIk4+6AEfA7ZVIQcZBDt4cS8hpZgo1Uyf8HQR/qyqfA5iOHFGjXh/ORqpHT+fjoOO5W29Ia3xS3NINFLkz5cTg2QQYr9XY7XNEUghcser0g/WRuUK5pdA06qQA5W95BWzFB67Dql2pT2qA8ZA6/Ao02Ly8h/lC6GYsyoDZ2evWgMG/9iOOOnEVw7yThdKqzBgtAKTmO4eGsYaWODWmgyTtrIHIZa6fQsTGP0UAxST5l9pYLVY4Zk8E4mVCoPb8X0MYBYQiR94NoQV05PgFHHvsaoxaP9w8PD/SM8fxdJyGCUlZcQOnSCAY/GwBsR6xn7T56FK/vLLz+j+cMpkDFO7H+9XCT0FUtoD8Wgp2IaA1VpepT25ehJNZI3UyR/OFYBVQgTehRL6BFsEXsECxQ4n/kYmBmBZP/z8TLjyy+ffKBfnsLywTGfIKuMIKGvnx5dLJNDEsLUnIwEGFgTGqCDP72MZ7t/Uf0DtgfUBgIHiqPL6uXP8Wo5Bu3RQ4vEx7Aw9Dad8vSXlRbsh///p1+joIRwjDHArDH9XK0ehj/9ukrxMf0ZG1UQPgY2iUM76NMqz+NFIzz1f/yV/hAcqhzQxQ6r1WeL6j96tkrzkP4QNlZlwaBV+ugSwfgsxgAG1fQYwfiF1k/MsKKtEQqjhSkirdJrBahWF0PkVfAj3TklMPaj2o+luU99CjMsMmAAQ+hNlOXnoC73w5q8So8RKudlwP/0OErzT+pTmHmWHgOM0ZXHsZH+8s3VcuB/Q+cO+wZdH4tvXny5evMsluQj6lNYH6cHPQkMsHj9XMWExkCsIRrjCZoQGKuQRSCh7AoJDGBQyWHAhSydNwPjLzo/ZKjKgAHGWzz3T9SnJGbxN2hCX7aE8QnNnZ44oJEJ1n5XaEL0WFEQBlCqfTR32oqQsHCfogkBswoxVzN0cWBeR7ZITOjxBVtvgIjAx0hCoIdbiI2bYcAFJlV8rmLWIeaqAn0ca1d69sMHXD4GVoeIH+ARyJyes9D1F7T4YSenBzx8ShZgoDYVXPtN6TGXVqmKjW1LI7byX1RCT6DFjwXRZsDQkUXbNDnowipkuD9BjUyTDfsFWUdiLi+BhYuuN7AltHW1NnOrfwAjneEJQH2fh1FCx8BIr+A9XIQhufoLZHr4JCjA8ddfkRpELWUN97ctE7pEE2Ks/hwBBlqHmCsgLMDR0RGaNdsVjXs/2Qkx3KgiDHTFKL8nsRRWY2ArQIGgeyVgrKAx0C0FIncyJxL2Bku6nQFfJmiBRA4e3EkHZ0CuoC6ypaR0aqMOBTjqyHkNmb0jRdbZqgR1xoq9hoxdMyeNL7qQndiFMDYGhD5cVBXTbdMwkojSkt+4shm7f2DAozFY21Ty+0SsFGIifUiUOW6LNgYY+xvydUhToKFNkmkx21WnE6Ax2IeZpM5DUjvShkEOzs7ODoiRtBTl+ge7XXW6PeU2zRZ5i+uwlViomeTF+U+Br/zi5ccXxElE+Uucz+f0MeGmWYsXySPqH14iCsk5exmzXX96lVAuYSyShQ+1SwzRFiZjJ1amDt1EtJ9pvK4m5fwkEVpHuMfaW9x4JuGGss35clCHTMWyx7HAGdM8eYD+k//eJkEcj2lgjflROGCLgcaweDNwUIf4NSD22ElAXNUa3wBG9XvNB0nUCgpidUXBbcAbDDBEKRDS9ijNtHv9eOWZJ7e1Rq0JKarVZqP2XEtoFgz/dMcjUaghNLmBz0UcHefnPRgPl/Gz9tDrJLM1n/sQtdpvGMaPWq2RbBCNaKN+d3kHmuX2JjKhydA7DjCkYjfDQGzHGTmGBmKybwOIWu0HhvHN/0NjluRYhHUHiTkaTA3PHnjHAQZvnJMQ82pBgbdGgAE5UgucPQGGhEnEo3i7pKjV/kYwfqsVwgENPIDh5ToIa16vMZqQ48fyT43bfBjApIIYe3kwzJNaJM3vF3GGi+/N6G9vc3EAkwpi4CEzshiRTi06yPdvf/9zcfHP399+/Bb/fc7mgJFAAIMVXieH8ZDEYMosTy5IXBTEyHMmiG4NtuTr5GIM1IcsjXEiBigAA0ZtwLsU+EaVSK7lmiOfUtE+w8IxJLWq8TyXTm0cw7eoJDgat7ny2AKGP1jVBCCNxvucxsgWMLRwscEkaTRoEzeD0LFtm8AIVk3PZ41GE2WYPT/Jf1h1G60RgviL2PuZb4/EpFa7vnrwGQo4cbsljEDMSmU6v7k5XcjNzXxemegFnRqWwMg1/UUCF2iMHf8sskUM5OwNuhmZRSRmcb6HR1rQI0RF3TsmgZHLwo0E20kQOI/kxRSbhuzdx1SCbSoV1jckLNxcy6aYEOhIY246pE4b7B8CDI5LPV1WYLuwoF6nSa3+cq3FE0ItmIX+SHmRWIsX1vIacTr1cTe4qMCy3aHAuZxKJDwj+fxUSVm88bCQApNFFLZor+FWRMLdJnHAeecCozgzeNR3L3BuBfsb6e6H2I2INwYKM982KeJtmoIM3A2LcNOMcbRXNcl4tFcxEe6Ls86LqyVCjOJMqk1K1hPKiolOh+HIxlOpJdkOWisnGQ9aqybAqJI5aK2eCANYy2CLSERF77qAkiKIUccOPqgoJh+jJCYVcB/JnFBWUAQH5tAzHwqK4PhiOUwqeC6VwiiHSQWNKgqjHCYVdLhRGOUwqaCnqqwYEx7G/N/ce9ZbEfPk3zkb47TZmD2UgSOIkT1lYZwGO/IN9TnM90EQRPMUx5gv4wpU16t1lNAcxbhfYDSuVMdYBiw332EYq8aozU52XVCuRBF0jSmCcbrCaOSLLt20RGGZzRsE436NkTfcabOyDh+Pa1WEEYs9UxsjCme8gxjzCONaaQxtFgVoTTkYeWN9NyzxGNk5xIhFo+26pDwxBRi1EmJwlUppDI2PUVn3nMasLF0cGakq78o3b5wiGFEfV9s2NN+uytmcIxhr01DtxoiaAzcNA45mELS862KK5bYRRCvHKJKrv5v769sHld+eWoipPb++fXdTYWFUekUF/G5YTFNPug2TGGVxGmoaF6OoQMPNCxeDe3ZfKaFc6v+fGCVxGoLA6CRGcXHLmxYqTJ3CKMVwGwgXoxxBYYGMeO9vcK9kUknoG8iTGKWINAyE3t+n9jfKEWsBoy0ojDJE4QZCH9ahMMoQEx0If7dJeNOXKkLHhZV0Q5m+orCs2/tDLkZRJ5s2LYKYkbJE8AgCkUoSFiZ8RqQc858w1rAcE4cwgLUcsS/Cew3L4VQQ36RXitYQX0FXBlMdnhvOdunZjkXiwFwZjEOJw6RliP2UOGhdBq8CvP4bXtCh/jyOXHAAMdTvHLBrIBjqnzUDkx+GYe26lCLBbpuAGMpbh9gNzQiG6gtZ7GFQBEPxIZdgL/8iGIrbI+it3xgG76WD3QvyVA6OYamsVfhTCxiG0jMg9uAPA0PltRO81ImJoXAnZ7yDjGMobK3jD4HgGMpe08F6BwTHUHYm1xkv2zAwFF11MB9lYWGo6a8yWc8MsTCUHKzYj94zMZQMH2E+dcHEUPDsHD6BCzBYjw3tTLD7N8UY6s2BnGfEOBiKqRVHpfgYBV7hl194KsXHqAx3XfZICP9VNS4G62HOHQjmR5DGqNQVmcy5HUOMochkLnw8TIRhqxCapPdFL2iKMFSYBfWO8B1QIUbF3rXNToRtIYOxaw6JtpDC2G3/IHWZl2VlMCrW7sZdyccrpTCCGIydNAjRJB/alcSo9JxtcwTnetqy77rKYlTsTiGvHEhDnDzcXs/ub8QFS4Vxc1eb3T5s60SgefI+eOWiVmveF4kxvwvv7ghfz9gChPYwW5+0vGM92J0eY3q3Pmg6e9i0apnmSfy5Ibn2kMK4i50lb1xvtkHMk6vkkzBNmf4hg3GaeJ+lUXu/uROOphnpEzxOnQtjTifra9bI1DcwkxDyFnm+KnFLTXaMd/CxnMbd025/RIpEIUTXBv9iTwzJ9A4JjDvkzZ9mYx68SDoeaLou934lD4DoutHxWlbiQocttEYtuo3BHnr1wcgIWiYtTlh+4rT73nDl1TyFeUkNuTJ9A2kOeviw3Z436Q+c8E0BwiUiy5cHgvKPu6uHWldyM0tk1mzWJNpCcsA9DZKLp303Z33UbvW6AVDbMaIS6ys4TTNG7cU7EDbL/vbtheitJ1lrRNIYubnPkLZlu63WsDfsenv+v62Wyyx6UqY3p+/u79+d3jArC4i0aViZL56SSpH2FuV/P+8hNK/TX20AAAAASUVORK5CYII=;" parent="esbHECSBwcRWjfnft_Ba-1" vertex="1">
          <mxGeometry x="-270" y="350" width="69.88" height="90" as="geometry" />
        </mxCell>
      </root>
    </mxGraphModel>
  </diagram>
  <diagram id="e6AHy6lls-u91SJ-M_ZF" name="authn">
    <mxGraphModel dx="1102" dy="1025" grid="1" gridSize="10" guides="1" tooltips="1" connect="1" arrows="1" fold="1" page="1" pageScale="1" pageWidth="850" pageHeight="1100" math="0" shadow="0">
      <root>
        <mxCell id="JbjSRneEBgllwZLbTtod-0" />
        <mxCell id="JbjSRneEBgllwZLbTtod-1" parent="JbjSRneEBgllwZLbTtod-0" />
        <mxCell id="Sxy_3wtRU_54jmXS-q1q-3" value="login" style="edgeStyle=orthogonalEdgeStyle;rounded=0;orthogonalLoop=1;jettySize=auto;html=1;" parent="JbjSRneEBgllwZLbTtod-1" source="Sxy_3wtRU_54jmXS-q1q-0" target="Sxy_3wtRU_54jmXS-q1q-1" edge="1">
          <mxGeometry relative="1" as="geometry">
            <Array as="points">
              <mxPoint x="100" y="120" />
              <mxPoint x="100" y="120" />
            </Array>
          </mxGeometry>
        </mxCell>
        <mxCell id="Sxy_3wtRU_54jmXS-q1q-16" value="logout" style="edgeStyle=orthogonalEdgeStyle;rounded=0;orthogonalLoop=1;jettySize=auto;html=1;fontSize=12;" parent="JbjSRneEBgllwZLbTtod-1" source="Sxy_3wtRU_54jmXS-q1q-0" target="Sxy_3wtRU_54jmXS-q1q-1" edge="1">
          <mxGeometry relative="1" as="geometry">
            <Array as="points">
              <mxPoint x="140" y="520" />
              <mxPoint x="140" y="520" />
            </Array>
          </mxGeometry>
        </mxCell>
        <mxCell id="Sxy_3wtRU_54jmXS-q1q-0" value="" style="shape=umlLifeline;participant=umlActor;perimeter=lifelinePerimeter;whiteSpace=wrap;html=1;container=1;collapsible=0;recursiveResize=0;verticalAlign=top;spacingTop=36;outlineConnect=0;" parent="JbjSRneEBgllwZLbTtod-1" vertex="1">
          <mxGeometry x="30" y="40" width="20" height="720" as="geometry" />
        </mxCell>
        <mxCell id="Sxy_3wtRU_54jmXS-q1q-4" value="redirect&amp;nbsp;&lt;br&gt;&lt;div style=&quot;font-family: &amp;#34;consolas&amp;#34; , &amp;#34;courier new&amp;#34; , monospace ; font-size: 14px ; line-height: 19px&quot;&gt;&lt;span style=&quot;color: #a31515&quot;&gt;/auth/google/login&lt;/span&gt;&lt;/div&gt;" style="edgeStyle=orthogonalEdgeStyle;rounded=0;orthogonalLoop=1;jettySize=auto;html=1;" parent="JbjSRneEBgllwZLbTtod-1" source="Sxy_3wtRU_54jmXS-q1q-1" target="Sxy_3wtRU_54jmXS-q1q-2" edge="1">
          <mxGeometry relative="1" as="geometry">
            <Array as="points">
              <mxPoint x="300" y="160" />
              <mxPoint x="300" y="160" />
            </Array>
          </mxGeometry>
        </mxCell>
        <mxCell id="Sxy_3wtRU_54jmXS-q1q-12" value="&lt;div style=&quot;font-family: &amp;#34;consolas&amp;#34; , &amp;#34;courier new&amp;#34; , monospace ; font-size: 14px ; line-height: 19px&quot;&gt;&lt;span style=&quot;color: #a31515&quot;&gt;/google/userinfo&lt;/span&gt;&lt;/div&gt;" style="edgeStyle=orthogonalEdgeStyle;rounded=0;orthogonalLoop=1;jettySize=auto;html=1;fontSize=12;" parent="JbjSRneEBgllwZLbTtod-1" source="Sxy_3wtRU_54jmXS-q1q-1" target="Sxy_3wtRU_54jmXS-q1q-2" edge="1">
          <mxGeometry relative="1" as="geometry">
            <Array as="points">
              <mxPoint x="300" y="360" />
              <mxPoint x="300" y="360" />
            </Array>
          </mxGeometry>
        </mxCell>
        <mxCell id="Sxy_3wtRU_54jmXS-q1q-1" value="Client" style="shape=umlLifeline;perimeter=lifelinePerimeter;whiteSpace=wrap;html=1;container=1;collapsible=0;recursiveResize=0;outlineConnect=0;" parent="JbjSRneEBgllwZLbTtod-1" vertex="1">
          <mxGeometry x="150" y="40" width="100" height="720" as="geometry" />
        </mxCell>
        <mxCell id="Sxy_3wtRU_54jmXS-q1q-14" value="" style="html=1;points=[];perimeter=orthogonalPerimeter;rounded=0;glass=0;sketch=0;fontSize=12;strokeColor=default;fillColor=default;" parent="Sxy_3wtRU_54jmXS-q1q-1" vertex="1">
          <mxGeometry x="50" y="400" width="10" height="40" as="geometry" />
        </mxCell>
        <mxCell id="Sxy_3wtRU_54jmXS-q1q-15" value="LocalStorage.setItem(&#39;userInfo&#39;, User)" style="edgeStyle=orthogonalEdgeStyle;html=1;align=left;spacingLeft=2;endArrow=block;rounded=0;entryX=1;entryY=0;fontSize=12;" parent="Sxy_3wtRU_54jmXS-q1q-1" target="Sxy_3wtRU_54jmXS-q1q-14" edge="1">
          <mxGeometry relative="1" as="geometry">
            <mxPoint x="50" y="380" as="sourcePoint" />
            <Array as="points">
              <mxPoint x="85" y="380" />
            </Array>
          </mxGeometry>
        </mxCell>
        <mxCell id="Sxy_3wtRU_54jmXS-q1q-21" value="" style="html=1;points=[];perimeter=orthogonalPerimeter;rounded=0;glass=0;sketch=0;fontSize=12;strokeColor=default;fillColor=default;" parent="Sxy_3wtRU_54jmXS-q1q-1" vertex="1">
          <mxGeometry x="50" y="650" width="10" height="40" as="geometry" />
        </mxCell>
        <mxCell id="Sxy_3wtRU_54jmXS-q1q-22" value="LocalStorage.removeItem(&#39;userInfo&#39;)" style="edgeStyle=orthogonalEdgeStyle;html=1;align=left;spacingLeft=2;endArrow=block;rounded=0;entryX=1;entryY=0;fontSize=12;" parent="Sxy_3wtRU_54jmXS-q1q-1" target="Sxy_3wtRU_54jmXS-q1q-21" edge="1">
          <mxGeometry relative="1" as="geometry">
            <mxPoint x="50" y="630" as="sourcePoint" />
            <Array as="points">
              <mxPoint x="85" y="630" />
            </Array>
          </mxGeometry>
        </mxCell>
        <mxCell id="Sxy_3wtRU_54jmXS-q1q-8" value="/code&lt;br&gt;redirectURL&amp;nbsp;&lt;span style=&quot;color: rgb(163 , 21 , 21) ; font-family: &amp;#34;consolas&amp;#34; , &amp;#34;courier new&amp;#34; , monospace ; font-size: 14px&quot;&gt;auth/google/callback&lt;/span&gt;" style="edgeStyle=orthogonalEdgeStyle;rounded=0;orthogonalLoop=1;jettySize=auto;html=1;" parent="JbjSRneEBgllwZLbTtod-1" source="Sxy_3wtRU_54jmXS-q1q-2" target="Sxy_3wtRU_54jmXS-q1q-7" edge="1">
          <mxGeometry relative="1" as="geometry">
            <Array as="points">
              <mxPoint x="480" y="200" />
              <mxPoint x="480" y="200" />
            </Array>
          </mxGeometry>
        </mxCell>
        <mxCell id="Sxy_3wtRU_54jmXS-q1q-10" value="exchange(code): token" style="edgeStyle=orthogonalEdgeStyle;rounded=0;orthogonalLoop=1;jettySize=auto;html=1;" parent="JbjSRneEBgllwZLbTtod-1" source="Sxy_3wtRU_54jmXS-q1q-2" target="Sxy_3wtRU_54jmXS-q1q-7" edge="1">
          <mxGeometry relative="1" as="geometry">
            <Array as="points">
              <mxPoint x="520" y="280" />
              <mxPoint x="520" y="280" />
            </Array>
          </mxGeometry>
        </mxCell>
        <mxCell id="Sxy_3wtRU_54jmXS-q1q-2" value="Server" style="shape=umlLifeline;perimeter=lifelinePerimeter;whiteSpace=wrap;html=1;container=1;collapsible=0;recursiveResize=0;outlineConnect=0;" parent="JbjSRneEBgllwZLbTtod-1" vertex="1">
          <mxGeometry x="350" y="40" width="100" height="720" as="geometry" />
        </mxCell>
        <mxCell id="Sxy_3wtRU_54jmXS-q1q-13" value="User" style="html=1;verticalAlign=bottom;endArrow=open;dashed=1;endSize=8;rounded=0;fontSize=12;" parent="Sxy_3wtRU_54jmXS-q1q-2" target="Sxy_3wtRU_54jmXS-q1q-1" edge="1">
          <mxGeometry relative="1" as="geometry">
            <mxPoint x="50" y="360" as="sourcePoint" />
            <mxPoint x="-30" y="360" as="targetPoint" />
          </mxGeometry>
        </mxCell>
        <mxCell id="Sxy_3wtRU_54jmXS-q1q-7" value=":Object" style="shape=umlLifeline;perimeter=lifelinePerimeter;whiteSpace=wrap;html=1;container=1;collapsible=0;recursiveResize=0;outlineConnect=0;fillColor=default;strokeColor=default;perimeterSpacing=0;rounded=0;glass=0;sketch=0;" parent="JbjSRneEBgllwZLbTtod-1" vertex="1">
          <mxGeometry x="612.19" y="40" width="61.1" height="720" as="geometry" />
        </mxCell>
        <mxCell id="Sxy_3wtRU_54jmXS-q1q-5" value="" style="shape=image;verticalLabelPosition=bottom;labelBackgroundColor=#ffffff;verticalAlign=top;aspect=fixed;imageAspect=0;image=data:image/png,iVBORw0KGgoAAAANSUhEUgAAAPoAAADJCAMAAAA93N8MAAABKVBMVEX///9ChfT7vAXqQzU0qFP7uAA1f/QkpEmv2LizyfozqUk8lrNChPj7ugDzPRr/vQAoevMrif8OplerY5j803nCtSnqPi/pOirpNiXv9P7Htif8vwDpMh/pMB32+f7l7f3pODfoKhT+8NN3o/ZMi/T2vbr97ezU4fzA0/v/+/GYuPjxjIb7393rTkLznpn+9PNhlvXuaCz81oT+9N7+6sJUj/WOsvj1sKzvfXb51NLsWU34yMXucGfymJKiv/nK2vuAqffrTjLzjSD2mhr3pRT5rw78y1n7wzP93JjZ5fz8yVH94qv7wCT80G3L5tHl8uhTsmvtYlnwhX7vJwDl1uL0qaXxfCb5u2LyhCPsUCT+8df+6cL95bJpvYWPyp2x0Nzk2p9GrmC1271oh/1lAAALK0lEQVR4nOWd/VvbOBLH46R2ym5y9d1xSbo4gAtJgYSQAiHkhZe2tJS3tnDX3l67cNf9//+Ik+O8x441o5Fkdr8/9enzFPzpjEbSaEZKJBSr3Co1a5XD7m17O8W03b7tHlZqzVKrrPpLFKpaOuqm3KJTKORzTKmB2J/z+YJTdFPdo1JV91dSq1w6artFhpyaq1y+UHTbR6U/igPsdCopN5J6gt9NVTo7ur9bVOXmrevkealHyjtut/mIjV/+0nYL3NaesX7BvW0+TtuXbgW4h/Tdjm4OqKoVxxHk7tMXc18ek+k7ty5ifIep4N49limvtF0kMfhIebf7GOBLKRpPn1Qu/vAMnJ57AB/nya7VLkoC9+ErcQ145a4rwdXHlXeauiEDVZMN7slpx2/It1IF+eApz+uPdKNOqeIqAfdUSMXJ8K0U4QomUjm3pht4qCN1Jvfl3MYj1O+01YzyceWKcdjVdKhXrXyKgdPXVDv7QE5XM3lX1ro1WvltnQN+Z1tlZJ9WrqBvlqvy5xrl6J//0kTe0hPgRvrL3+0NLeQdXQFuRP5Xw17QQF6KA7lh2Md/VnIN7LEhV84ei3Fu6GBvxYncUBnrqvEiZ+wnisjL+havweSM/UIN+rb2lcw0uWFYz1WQ3+pct4eQG8a6AvKK+sQEB7mRWZNOrntCDyFnLi97iivHlZyFupdy0TWHuDnkzO7LMsk1D/S55EamLpFc8/p1PrnU4b5DZvNcvuA4xZ4cp5Dny/ZEkbPhviIL/ZBiRveqArcPj5qdVrVaLlerrU6pdtd2ik4UfzS5YTQkkYu7e67gpu6Ca0HLnaP5lWY85NJcXtDmXiXY/CrAndJhMawahYtclstXhNDzbpur/q/TDSy+4iQ3DBlRXminmncr3Dnzcs2ZCafc5IaMHO0tfjFTcGqwg5JmbhKen5wNd3LyDrpAKI85GfwyXlMMITesLWp0LHjOvcMdjVWGpTkgcubyxFv3JnI1U9hGn4tV++f2QHIjc0rIzYQkFzsF7x1gQ8mpJ7gvKPS8aMFPNZWHkxNnLVCJSIrD/y6cnNbsKKPTlHxs2XB0SrNj1nEuUaHPBoKdzuwlhNGLZBUPJ3D2zAHVL4dnpXIFwgLul3B2myhXNWchtzqr3t9TkmPYqTav3UCjM8rXr76+eXv2zkwml5aWkknz3dnbN19fvV5dzREX7SN8nuT3BuSfGfXXN2dLvpIj9f/m7N/7myS/eqgFKLtFcgBZy09hp76+NaeYJ7WUNM3k4j7FLx/owIKh08xvE+6++vrXd/Ooh8pmTfPyis749QyMnWIT0xoFOWZvPu4BPqP/TfwLeloGolsE5QZ3+aHB30K4h/S7e+IfkYCHeYLkbN/oq6/OwNwD+vcvxD+DLWlhw118RddxfPB3SHAf/pICfh2ELj61H7Iot/ofEfA+vLjbA11e2OOL/hgXAvfhb4TD/Sko1InG+FZx9VcCcB/+ShB9GWR20Rh/xHydBNyTeS7o9aBIJ7qqeUNkcl9Z84PY54CCvCVyGrF5Scjdk3kuNOKPQew23u4vzCw1OjP8dwF02Gg3MgZycv9gkoN7EnL6A+hSHuX0N3LIGft7PPoKdPdqI3JV57LIvQGPZ68D0Q0LOuA3k/TDfKRsEh3sNoAbd8beACXqNrMyyb3dPHaGBwY6T5l1ALtsci/QY9nXgIHOYze42eWTC7DDPd4TJ7sKcs/nceP9OeI0htvnpUa4MfYkCh24bR+wc21hz9WQM3bcHAdd1fjimeOkrWRmhVvb4Aa7YUWubSStXkPYMWta8IKur6iWsBcqyRk7JmeHs3pUW9SmqnHeJ19EkMPXskPN+6mXStFx5MAU3Zjm5W2UDnQsOTBfMa7wLezeoyDHhvgee1iWVtmMLkSeOMGjh7XHXCmd19DkiQs8eojLbz4ScvTE7ts96CfeKHR3EXIx9KDCaZUxTogct3cbKiDSKZzSxcgF0WcLpxWuYAXJBdFnD97VGV2UXBR9ek33TZnRhclF0afN/l6V0cXJhdEnR7vAnO5VifXF8d9HQM7QLewGpm/28UTdLtLoXnnY7tX3b3t7ey/2P9wko/ApyBPLx1sHa4YA/0SZDcrojHtx6th07+p8HjwJeV/PTw4MG0s/+jG/IdCz5nVgOeDeYig8JXlPL9dw8GMVtIiZzUyG1sBu3gTDk5MzPT9FpeWH8xs8yEVUhny7DviJMsiZVuqIjdww0IF3q9lk1KnR4syPlESeQFSMj5XZQP3dvIz+nunwIY+cbeDBA37g8VB/N294vmdyUyCTnE1361B42/+H+zB0PvLJtbFcciYoez/GL4L8Pcvh7b6+D9mlkyeWgVbP+BkL0Mlq9pr/ewbhUz45m+WAcb538gob6qCKAH9TpIIc3BXVm95AQx14QJhVRp5InMKqSL3BDtm6QNzdE5viVJEnEqBI19vCQGZ1cJXnuTpy2KlMb2aHGB1cB7HPOROSCFZqAotyJmnbHrlAZmdxDpSV0w0XIRD6CiTAZ3d1s0VoCxDpWIgHbNvMb7rZInQBmNutBcjcltWNFimAx7OlLP8pY1agjl2RAAW0mQNABl60Z0eBFgBmXwOUUgh1ragRpOCinjjnJY9/lIMdvTcS1/zoxLcwSBCkUWA9wU3+GNATf2J0yHruD4YOyVdA0GluXpAqkMMDwhzJvQtSBTl6b0DmdarbRuQJUk1YByRpYr9xg+3Y1yBreO4MvDYB+mIyp5Cdm6mbLFKAFBXbuQFq4GOen4JFObZfh2RpVOYYMYJs3KwNUJlk3D2+wU9uWBewjGy8d+yQ/FSvTBh0zqqbbq5ATc7ejeKg05c4mx1k9N4d+qBywThvYUD9b737VkFFczFOTULCe7+QCHi+HteFPLAtxC+PhpDHd+sKbGv3239g/T4Ct4vIFPDazX5hOLBCNnsdQ/Y1YClNv2YQWjcXQ7tDyYd9T9CGzmw2Xvma5Qa4THZwdQW8gTlWS5sTeFPAsBkA0d0nfGEgmZYxZeGjzh9EC3PWvIkF/DGqD2R0VQuqh/nZL/cfNTJ7WtmyUF3N4zduItCf/fK3dPrJgz76i+MGtvdlvOUJ3sXMyJ8wpdPpH/cPT5H67wJOx1unDRtncE8TjW7g5sY+ua80Uj/9zL4fpYxQo9vkLS3AQDdBjtZPP4u16mE1eWsDrB2AhlwX+vRr7dcAsxOR60KffrQbYHYqck3os5cKc492MnJN6LMvtfPm4+nI9aBPj3RPfJlZQnIt6IGX8nBtYijJtaAHPxGxG83+7B+E5DrQw97zjOz6oiXXYvVg8shIR0yuAd1+GYIe0H8sk1w9+ryrNeet6cjJ1aPPTukjzYny9OTK0ec/ABSar5FArho96oWAkBt0ZZArRo++QzdwLS+FXC162N2KYwq6J1wOuWKrR5IHhTpJ5ErRLa4Xn6ZXNrLIVaLzvu723VRCrhB9/nXR4xpP2cgjV4fOTz5ud4nkytAh5KPnnWSSq0K3gA897fXmOKnkatAz6+DX/DbZVkYuuRJ0K3olE6D3plxyFeiY1608/S8tlVwBOu5NM0+fnkiFl41uNUQe7byXyS4Z3Q5JQfLqo0TDS0W31kGzeaAepLFLRM/Ywu8Se/r0WRK8PHR7jeD59Z4+/pACLwvdrov7umR4Oeh2PeBAUQz+c5qaXgJ6xq6HnjII6NM9MTw5umUfCD84H6anPyjpadEtuy7yCHO0Pnn0RPh06BnGvUAV1OfR/36fJsGnQbcs2zjYAL3FKoj/8Nmv+9OGnslYjDpT39pQYO4Z/o+/P324v//8Qzn6eqO+drq1sHEhYuz/Azr40WxMyQBbAAAAAElFTkSuQmCC;" parent="Sxy_3wtRU_54jmXS-q1q-7" vertex="1">
          <mxGeometry x="-5.550000000000032" y="-10" width="72.19" height="58.04" as="geometry" />
        </mxCell>
        <mxCell id="Sxy_3wtRU_54jmXS-q1q-9" value="&lt;span style=&quot;color: rgb(163 , 21 , 21) ; font-family: &amp;#34;consolas&amp;#34; , &amp;#34;courier new&amp;#34; , monospace ; font-size: 14px&quot;&gt;auth/google/callback&lt;/span&gt;" style="html=1;verticalAlign=bottom;endArrow=open;dashed=1;endSize=8;rounded=0;" parent="JbjSRneEBgllwZLbTtod-1" source="Sxy_3wtRU_54jmXS-q1q-7" target="Sxy_3wtRU_54jmXS-q1q-2" edge="1">
          <mxGeometry relative="1" as="geometry">
            <mxPoint x="540" y="300" as="sourcePoint" />
            <mxPoint x="460" y="300" as="targetPoint" />
            <Array as="points">
              <mxPoint x="500" y="240" />
            </Array>
          </mxGeometry>
        </mxCell>
        <mxCell id="Sxy_3wtRU_54jmXS-q1q-11" value="redirect&lt;br&gt;Set-Cookie (HttpOnly): id_token: {token}&lt;br&gt;&lt;div style=&quot;font-family: &amp;#34;consolas&amp;#34; , &amp;#34;courier new&amp;#34; , monospace ; font-size: 14px ; line-height: 19px&quot;&gt;&lt;span style=&quot;color: rgb(163 , 21 , 21)&quot;&gt;/callback&lt;/span&gt;&lt;br&gt;&lt;/div&gt;" style="html=1;verticalAlign=bottom;endArrow=open;dashed=1;endSize=8;rounded=0;" parent="JbjSRneEBgllwZLbTtod-1" source="Sxy_3wtRU_54jmXS-q1q-2" target="Sxy_3wtRU_54jmXS-q1q-1" edge="1">
          <mxGeometry relative="1" as="geometry">
            <mxPoint x="450.0000000000002" y="330" as="sourcePoint" />
            <mxPoint x="207.4266666666665" y="330" as="targetPoint" />
            <Array as="points">
              <mxPoint x="308" y="320" />
            </Array>
          </mxGeometry>
        </mxCell>
        <mxCell id="Sxy_3wtRU_54jmXS-q1q-17" value="redirect&amp;nbsp;&lt;br&gt;&lt;div style=&quot;font-family: &amp;#34;consolas&amp;#34; , &amp;#34;courier new&amp;#34; , monospace ; font-size: 14px ; line-height: 19px&quot;&gt;&lt;span style=&quot;color: #a31515&quot;&gt;/auth/google/logout&lt;/span&gt;&lt;/div&gt;" style="edgeStyle=orthogonalEdgeStyle;rounded=0;orthogonalLoop=1;jettySize=auto;html=1;" parent="JbjSRneEBgllwZLbTtod-1" source="Sxy_3wtRU_54jmXS-q1q-1" target="Sxy_3wtRU_54jmXS-q1q-2" edge="1">
          <mxGeometry relative="1" as="geometry">
            <mxPoint x="199.99666666666675" y="560" as="sourcePoint" />
            <mxPoint x="399.83" y="560" as="targetPoint" />
            <Array as="points">
              <mxPoint x="300" y="560" />
              <mxPoint x="300" y="560" />
            </Array>
          </mxGeometry>
        </mxCell>
        <mxCell id="Sxy_3wtRU_54jmXS-q1q-18" value="redirect&lt;br&gt;Set-Cookie: id_token: &quot;&quot; MaxAge: -1&lt;br&gt;&lt;div style=&quot;font-family: &amp;#34;consolas&amp;#34; , &amp;#34;courier new&amp;#34; , monospace ; font-size: 14px ; line-height: 19px&quot;&gt;&lt;span style=&quot;color: rgb(163 , 21 , 21)&quot;&gt;/callback&lt;/span&gt;&lt;br&gt;&lt;/div&gt;" style="html=1;verticalAlign=bottom;endArrow=open;dashed=1;endSize=8;rounded=0;" parent="JbjSRneEBgllwZLbTtod-1" source="Sxy_3wtRU_54jmXS-q1q-2" target="Sxy_3wtRU_54jmXS-q1q-1" edge="1">
          <mxGeometry relative="1" as="geometry">
            <mxPoint x="409.5" y="330" as="sourcePoint" />
            <mxPoint x="209.66666666666674" y="330" as="targetPoint" />
            <Array as="points">
              <mxPoint x="318" y="640" />
            </Array>
          </mxGeometry>
        </mxCell>
      </root>
    </mxGraphModel>
  </diagram>
  <diagram id="Xj3kD6Y8dK4-Oxb3SlCp" name="e2e_test">
    <mxGraphModel dx="782" dy="2317" grid="1" gridSize="10" guides="1" tooltips="1" connect="1" arrows="1" fold="1" page="1" pageScale="1" pageWidth="850" pageHeight="1100" math="0" shadow="0">
      <root>
        <mxCell id="6u4EhadKnGVNi5jrmnjK-0" />
        <mxCell id="6u4EhadKnGVNi5jrmnjK-1" parent="6u4EhadKnGVNi5jrmnjK-0" />
        <mxCell id="6u4EhadKnGVNi5jrmnjK-12" style="edgeStyle=orthogonalEdgeStyle;rounded=0;orthogonalLoop=1;jettySize=auto;html=1;" edge="1" parent="6u4EhadKnGVNi5jrmnjK-1" source="6u4EhadKnGVNi5jrmnjK-2" target="6u4EhadKnGVNi5jrmnjK-10">
          <mxGeometry relative="1" as="geometry">
            <Array as="points">
              <mxPoint x="440" y="-862" />
              <mxPoint x="440" y="-862" />
            </Array>
          </mxGeometry>
        </mxCell>
        <mxCell id="6u4EhadKnGVNi5jrmnjK-2" value="&lt;code&gt;GOOGLE_SERVICE_ACCOUNT_KEY&lt;/code&gt;" style="dashed=0;outlineConnect=0;html=1;align=center;labelPosition=center;verticalLabelPosition=bottom;verticalAlign=top;shape=mxgraph.weblogos.github" vertex="1" parent="6u4EhadKnGVNi5jrmnjK-1">
          <mxGeometry x="280" y="-900" width="75" height="75" as="geometry" />
        </mxCell>
        <mxCell id="6u4EhadKnGVNi5jrmnjK-9" value="" style="shape=image;verticalLabelPosition=bottom;labelBackgroundColor=#ffffff;verticalAlign=top;aspect=fixed;imageAspect=0;image=https://brandlogos.net/wp-content/uploads/2022/07/google_cloud-logo_brandlogos.net_qxnsy-512x512.png;" vertex="1" parent="6u4EhadKnGVNi5jrmnjK-1">
          <mxGeometry x="510" y="-1070" width="102" height="102" as="geometry" />
        </mxCell>
        <mxCell id="6u4EhadKnGVNi5jrmnjK-11" value="" style="edgeStyle=orthogonalEdgeStyle;rounded=0;orthogonalLoop=1;jettySize=auto;html=1;" edge="1" parent="6u4EhadKnGVNi5jrmnjK-1" source="6u4EhadKnGVNi5jrmnjK-10" target="6u4EhadKnGVNi5jrmnjK-9">
          <mxGeometry relative="1" as="geometry" />
        </mxCell>
        <mxCell id="6u4EhadKnGVNi5jrmnjK-10" value="twitter-clone-XXX.json" style="dashed=0;outlineConnect=0;html=1;align=center;labelPosition=center;verticalLabelPosition=bottom;verticalAlign=top;shape=mxgraph.webicons.json;gradientColor=#DFDEDE" vertex="1" parent="6u4EhadKnGVNi5jrmnjK-1">
          <mxGeometry x="510" y="-930" width="102.4" height="102.4" as="geometry" />
        </mxCell>
        <mxCell id="6u4EhadKnGVNi5jrmnjK-13" value="docker compose up" style="sketch=0;aspect=fixed;html=1;points=[];align=center;image;fontSize=12;image=img/lib/mscae/Docker.svg;" vertex="1" parent="6u4EhadKnGVNi5jrmnjK-1">
          <mxGeometry x="274.82" y="-740" width="85.37" height="70" as="geometry" />
        </mxCell>
        <mxCell id="6u4EhadKnGVNi5jrmnjK-17" style="edgeStyle=orthogonalEdgeStyle;rounded=0;orthogonalLoop=1;jettySize=auto;html=1;" edge="1" parent="6u4EhadKnGVNi5jrmnjK-1" source="6u4EhadKnGVNi5jrmnjK-15">
          <mxGeometry relative="1" as="geometry">
            <mxPoint x="270" y="-860" as="targetPoint" />
            <Array as="points">
              <mxPoint x="190" y="-785" />
              <mxPoint x="190" y="-860" />
            </Array>
          </mxGeometry>
        </mxCell>
        <mxCell id="6u4EhadKnGVNi5jrmnjK-18" style="edgeStyle=orthogonalEdgeStyle;rounded=0;orthogonalLoop=1;jettySize=auto;html=1;" edge="1" parent="6u4EhadKnGVNi5jrmnjK-1" source="6u4EhadKnGVNi5jrmnjK-15" target="6u4EhadKnGVNi5jrmnjK-13">
          <mxGeometry relative="1" as="geometry">
            <Array as="points">
              <mxPoint x="190" y="-785" />
              <mxPoint x="190" y="-705" />
            </Array>
          </mxGeometry>
        </mxCell>
        <mxCell id="6u4EhadKnGVNi5jrmnjK-15" value="npm test" style="shape=image;verticalLabelPosition=bottom;labelBackgroundColor=#ffffff;verticalAlign=top;aspect=fixed;imageAspect=0;image=https://cdn.freebiesupply.com/logos/large/2x/nodejs-icon-logo-png-transparent.png;" vertex="1" parent="6u4EhadKnGVNi5jrmnjK-1">
          <mxGeometry x="60" y="-830" width="81.69" height="90" as="geometry" />
        </mxCell>
      </root>
    </mxGraphModel>
  </diagram>
  <diagram id="qS4xqPJ7Vxv-67POcEeA" name="envs">
    <mxGraphModel dx="2074" dy="1196" grid="1" gridSize="10" guides="1" tooltips="1" connect="1" arrows="1" fold="1" page="1" pageScale="1" pageWidth="850" pageHeight="1100" math="0" shadow="0">
      <root>
        <mxCell id="0" />
        <mxCell id="1" parent="0" />
        <mxCell id="h32mCaaa_8agE6AYLCCj-1" value="&lt;div style=&quot;background-color: rgb(255, 255, 255); line-height: 19px;&quot;&gt;&lt;div style=&quot;line-height: 19px;&quot;&gt;&lt;div style=&quot;line-height: 19px;&quot;&gt;&lt;div style=&quot;line-height: 19px;&quot;&gt;&lt;div style=&quot;font-family: Consolas, &amp;quot;Courier New&amp;quot;, monospace; font-size: 14px; line-height: 19px; white-space-collapse: preserve;&quot;&gt;&lt;div style=&quot;line-height: 19px;&quot;&gt;&lt;div&gt;MODE=&lt;span style=&quot;color: #a31515;&quot;&gt;Cloud&lt;/span&gt;&lt;/div&gt;&lt;div&gt;APISERVER_APPLICATIONURL=&lt;span style=&quot;color: #a31515;&quot;&gt;localhost:8016&lt;/span&gt;&lt;/div&gt;&lt;div&gt;PROJECT_ID=&lt;span style=&quot;color: #a31515;&quot;&gt;twitter-clone-438407&lt;/span&gt;&lt;/div&gt;&lt;div&gt;OAUTH2_CLIENT_ID=&lt;span style=&quot;color: #a31515;&quot;&gt;120740449329-6uo779hqeoaaitj6t92gt88e733cv3bv&lt;/span&gt;&lt;/div&gt;&lt;div&gt;OAUTH2_CLIENT_SECRET=&lt;span style=&quot;color: #a31515;&quot;&gt;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&lt;/span&gt;&lt;/div&gt;&lt;div&gt;OAUTH2_REDIRECT_URI &lt;span style=&quot;color: #a31515;&quot;&gt;=&lt;/span&gt; &lt;span style=&quot;color: #a31515;&quot;&gt;https://twitter.ivanenkomak.com/auth/google/callback&lt;/span&gt;&lt;/div&gt;&lt;div&gt;GOOGLE_SERVICE_ACCOUNT_KEY=&lt;span style=&quot;color: #a31515;&quot;&gt;/secrets/service-account.json&lt;/span&gt;&lt;/div&gt;&lt;div&gt;GOOGLE_APPLICATION_CREDENTIALS=&lt;span style=&quot;color: #a31515;&quot;&gt;/secrets/service-account.json&lt;/span&gt;&lt;/div&gt;&lt;div&gt;REDIRECT_URI=&lt;span style=&quot;color: #a31515;&quot;&gt;https://twitter.ivanenkomak.com/callback&lt;/span&gt;&lt;/div&gt;&lt;div&gt;ALLOW_ORIGIN=&lt;span style=&quot;color: #a31515;&quot;&gt;https://twitter.ivanenkomak.com&lt;/span&gt;&lt;/div&gt;&lt;/div&gt;&lt;/div&gt;&lt;/div&gt;&lt;/div&gt;&lt;/div&gt;&lt;/div&gt;" style="html=1;points=[];perimeter=orthogonalPerimeter;fillColor=strokeColor;align=left;verticalAlign=top;spacingLeft=10;" parent="1" vertex="1">
          <mxGeometry x="875.5" y="590" width="5" height="200" as="geometry" />
        </mxCell>
        <mxCell id="h32mCaaa_8agE6AYLCCj-2" value="&lt;div style=&quot;background-color: rgb(255, 255, 255); font-family: Consolas, &amp;quot;Courier New&amp;quot;, monospace; font-size: 14px; line-height: 19px; white-space-collapse: preserve;&quot;&gt;&lt;div&gt;MODE=&lt;span style=&quot;color: #a31515;&quot;&gt;Persistent&lt;/span&gt;&lt;/div&gt;&lt;div&gt;APISERVER_APPLICATIONURL=&lt;span style=&quot;color: #a31515;&quot;&gt;0.0.0.0:8016&lt;/span&gt;&lt;/div&gt;&lt;div&gt;AUTHENTICATION_ENABLE=&lt;span style=&quot;color: #a31515;&quot;&gt;true&lt;/span&gt;&lt;/div&gt;&lt;div&gt;OAUTH2_CLIENT_ID=&lt;span style=&quot;color: #a31515;&quot;&gt;120740449329-...&lt;/span&gt;&lt;/div&gt;&lt;div&gt;OAUTH2_CLIENT_SECRET=&lt;span style=&quot;color: #a31515;&quot;&gt;GOCSPX-...&lt;/span&gt;&lt;/div&gt;&lt;div&gt;OAUTH2_REDIRECT_URI=&lt;span style=&quot;color: #a31515;&quot;&gt;http://localhost:8016/auth/google/callback&lt;/span&gt;&lt;/div&gt;&lt;div&gt;REDIRECT_URI=&lt;span style=&quot;color: #a31515;&quot;&gt;http://localhost:3000/callback&lt;/span&gt;&lt;/div&gt;&lt;div&gt;ALLOW_ORIGIN=&lt;span style=&quot;color: #a31515;&quot;&gt;http://localhost:3000&lt;/span&gt;&lt;/div&gt;&lt;/div&gt;" style="html=1;points=[];perimeter=orthogonalPerimeter;fillColor=strokeColor;align=left;verticalAlign=top;spacingLeft=10;" parent="1" vertex="1">
          <mxGeometry x="875.5" y="300" width="5" height="180" as="geometry" />
        </mxCell>
        <mxCell id="h32mCaaa_8agE6AYLCCj-3" value="&lt;div style=&quot;background-color: rgb(255, 255, 255); font-family: Consolas, &amp;quot;Courier New&amp;quot;, monospace; font-size: 14px; line-height: 19px; white-space-collapse: preserve;&quot;&gt;&lt;div style=&quot;line-height: 19px;&quot;&gt;&lt;div&gt;&amp;nbsp; &amp;nbsp; &lt;span style=&quot;color: #800000;&quot;&gt;environment&lt;/span&gt;:&lt;/div&gt;&lt;div&gt;&amp;nbsp; &amp;nbsp; &amp;nbsp; - &lt;span style=&quot;color: #a31515;&quot;&gt;&quot;MODE=${MODE}&quot;&lt;/span&gt;&lt;/div&gt;&lt;div&gt;&amp;nbsp; &amp;nbsp; &amp;nbsp; - &lt;span style=&quot;color: #a31515;&quot;&gt;&quot;PROJECT_ID=${PROJECT_ID}&quot;&lt;/span&gt;&lt;/div&gt;&lt;div&gt;&amp;nbsp; &amp;nbsp; &amp;nbsp; - &lt;span style=&quot;color: #a31515;&quot;&gt;&quot;TWEETSSTORAGE_CONNECTIONSTRING=myuser:mypassword@tcp(twitter-mysql:3306)&quot;&lt;/span&gt;&lt;/div&gt;&lt;div&gt;&amp;nbsp; &amp;nbsp; &amp;nbsp; - &lt;span style=&quot;color: #a31515;&quot;&gt;&quot;FEEDSSTORAGE_CONNECTIONSTRING=mongodb://twitter-mongo:27017&quot;&lt;/span&gt;&lt;/div&gt;&lt;div&gt;&amp;nbsp; &amp;nbsp; &amp;nbsp; - &lt;span style=&quot;color: #a31515;&quot;&gt;&quot;NATS_URL=nats://twitter-nats:4222&quot;&lt;/span&gt;&lt;/div&gt;&lt;div&gt;&amp;nbsp; &amp;nbsp; &amp;nbsp; - &lt;span style=&quot;color: #a31515;&quot;&gt;&quot;APISERVER_APPLICATIONURL=${APISERVER_APPLICATIONURL}&quot;&lt;/span&gt;&lt;/div&gt;&lt;div&gt;&amp;nbsp; &amp;nbsp; &amp;nbsp; - &lt;span style=&quot;color: #a31515;&quot;&gt;&quot;AUTHENTICATION_ENABLE=${AUTHENTICATION_ENABLE}&quot;&lt;/span&gt;&lt;/div&gt;&lt;div&gt;&amp;nbsp; &amp;nbsp; &amp;nbsp; - &lt;span style=&quot;color: #a31515;&quot;&gt;&quot;AUTHENTICATION_OAUTH2_CLIENTID=${OAUTH2_CLIENT_ID}&quot;&lt;/span&gt;&lt;/div&gt;&lt;div&gt;&amp;nbsp; &amp;nbsp; &amp;nbsp; - &lt;span style=&quot;color: #a31515;&quot;&gt;&quot;AUTHENTICATION_OAUTH2_CLIENTSECRET=${OAUTH2_CLIENT_SECRET}&quot;&lt;/span&gt;&lt;/div&gt;&lt;div&gt;&amp;nbsp; &amp;nbsp; &amp;nbsp; - &lt;span style=&quot;color: #a31515;&quot;&gt;&quot;AUTHENTICATION_OAUTH2_REDIRECT_URI=${OAUTH2_REDIRECT_URI}&quot;&lt;/span&gt;&lt;/div&gt;&lt;div&gt;&amp;nbsp; &amp;nbsp; &amp;nbsp; - &lt;span style=&quot;color: #a31515;&quot;&gt;&quot;GOOGLE_SERVICE_ACCOUNT_KEY=${GOOGLE_SERVICE_ACCOUNT_KEY}&quot;&lt;/span&gt;&lt;/div&gt;&lt;div&gt;&amp;nbsp; &amp;nbsp; &amp;nbsp; - &lt;span style=&quot;color: #a31515;&quot;&gt;&quot;GOOGLE_APPLICATION_CREDENTIALS=/secrets/service-account.json&quot;&lt;/span&gt;&lt;/div&gt;&lt;div&gt;&amp;nbsp; &amp;nbsp; &amp;nbsp; - &lt;span style=&quot;color: #a31515;&quot;&gt;&quot;REDIRECT_URI=${REDIRECT_URI}&quot;&lt;/span&gt;&lt;/div&gt;&lt;div&gt;&amp;nbsp; &amp;nbsp; &amp;nbsp; - &lt;span style=&quot;color: #a31515;&quot;&gt;&quot;ALLOW_ORIGIN=${ALLOW_ORIGIN}&quot;&lt;/span&gt;&lt;/div&gt;&lt;/div&gt;&lt;/div&gt;" style="html=1;points=[];perimeter=orthogonalPerimeter;fillColor=strokeColor;align=left;verticalAlign=top;spacingLeft=10;" parent="1" vertex="1">
          <mxGeometry x="123" y="300" width="5" height="290" as="geometry" />
        </mxCell>
        <mxCell id="h32mCaaa_8agE6AYLCCj-6" value=".env.local" style="dashed=0;outlineConnect=0;html=1;align=center;labelPosition=center;verticalLabelPosition=bottom;verticalAlign=top;shape=mxgraph.webicons.json;gradientColor=#DFDEDE" parent="1" vertex="1">
          <mxGeometry x="853" y="210" width="50" height="60" as="geometry" />
        </mxCell>
        <mxCell id="h32mCaaa_8agE6AYLCCj-7" value=".env.cloud" style="dashed=0;outlineConnect=0;html=1;align=center;labelPosition=center;verticalLabelPosition=bottom;verticalAlign=top;shape=mxgraph.webicons.json;gradientColor=#DFDEDE" parent="1" vertex="1">
          <mxGeometry x="853" y="500" width="50" height="60" as="geometry" />
        </mxCell>
        <mxCell id="gjvv1DMt-OwgNYtcfXE_-1" value="docker compose --env-file .\.env up --build" style="image;sketch=0;aspect=fixed;html=1;points=[];align=center;fontSize=12;image=img/lib/mscae/Docker.svg;" parent="1" vertex="1">
          <mxGeometry x="303" y="209.5" width="50" height="41" as="geometry" />
        </mxCell>
        <mxCell id="gjvv1DMt-OwgNYtcfXE_-2" value="&lt;div style=&quot;background-color: rgb(255, 255, 255); font-family: Consolas, &amp;quot;Courier New&amp;quot;, monospace; font-size: 14px; line-height: 19px; white-space-collapse: preserve;&quot;&gt;&lt;div&gt;&lt;span style=&quot;color: #0000ff;&quot;&gt;MODE&lt;/span&gt;=InMemory&lt;/div&gt;&lt;div&gt;&lt;span style=&quot;color: #0000ff;&quot;&gt;AUTHENTICATION_ENABLE&lt;/span&gt;=false&lt;/div&gt;&lt;div&gt;&lt;span style=&quot;color: #0000ff;&quot;&gt;AUTHENTICATION_OAUTH2_REDIRECT_URI&lt;/span&gt; = http://localhost:8016/auth/google/callback&lt;/div&gt;&lt;div&gt;&lt;span style=&quot;color: #0000ff;&quot;&gt;REDIRECT_URI&lt;/span&gt; = https://localhost:3000/callback&lt;/div&gt;&lt;div&gt;&lt;span style=&quot;color: #0000ff;&quot;&gt;ALLOW_ORIGIN&lt;/span&gt; = https://localhost:3000&lt;/div&gt;&lt;/div&gt;" style="html=1;points=[];perimeter=orthogonalPerimeter;fillColor=strokeColor;align=left;verticalAlign=top;spacingLeft=10;" parent="1" vertex="1">
          <mxGeometry x="875.5" y="90" width="5" height="100" as="geometry" />
        </mxCell>
        <mxCell id="gjvv1DMt-OwgNYtcfXE_-3" value=".env" style="dashed=0;outlineConnect=0;html=1;align=center;labelPosition=center;verticalLabelPosition=bottom;verticalAlign=top;shape=mxgraph.webicons.json;gradientColor=#DFDEDE" parent="1" vertex="1">
          <mxGeometry x="853" width="50" height="60" as="geometry" />
        </mxCell>
        <mxCell id="gjvv1DMt-OwgNYtcfXE_-5" value="" style="endArrow=classic;html=1;rounded=0;edgeStyle=orthogonalEdgeStyle;curved=1;" parent="1" target="gjvv1DMt-OwgNYtcfXE_-3" edge="1">
          <mxGeometry width="50" height="50" relative="1" as="geometry">
            <mxPoint x="393" y="250" as="sourcePoint" />
            <mxPoint x="753" y="390" as="targetPoint" />
            <Array as="points">
              <mxPoint x="393" y="50" />
            </Array>
          </mxGeometry>
        </mxCell>
        <mxCell id="gjvv1DMt-OwgNYtcfXE_-6" value="" style="endArrow=classic;html=1;rounded=0;edgeStyle=orthogonalEdgeStyle;curved=1;" parent="1" target="h32mCaaa_8agE6AYLCCj-6" edge="1">
          <mxGeometry width="50" height="50" relative="1" as="geometry">
            <mxPoint x="413" y="250" as="sourcePoint" />
            <mxPoint x="753" y="390" as="targetPoint" />
            <Array as="points">
              <mxPoint x="413" y="240" />
            </Array>
          </mxGeometry>
        </mxCell>
        <mxCell id="gjvv1DMt-OwgNYtcfXE_-7" value="" style="endArrow=classic;html=1;rounded=0;edgeStyle=orthogonalEdgeStyle;curved=1;" parent="1" target="h32mCaaa_8agE6AYLCCj-7" edge="1">
          <mxGeometry width="50" height="50" relative="1" as="geometry">
            <mxPoint x="403" y="280" as="sourcePoint" />
            <mxPoint x="753" y="390" as="targetPoint" />
            <Array as="points">
              <mxPoint x="403" y="370" />
              <mxPoint x="878" y="370" />
            </Array>
          </mxGeometry>
        </mxCell>
        <mxCell id="gjvv1DMt-OwgNYtcfXE_-8" value="ci-cd.yml" style="dashed=0;outlineConnect=0;html=1;align=center;labelPosition=center;verticalLabelPosition=bottom;verticalAlign=top;shape=mxgraph.weblogos.github" parent="1" vertex="1">
          <mxGeometry x="88" y="620" width="75" height="75" as="geometry" />
        </mxCell>
        <mxCell id="gjvv1DMt-OwgNYtcfXE_-9" value="&lt;div style=&quot;background-color: rgb(255, 255, 255); font-family: Consolas, &amp;quot;Courier New&amp;quot;, monospace; font-size: 14px; line-height: 19px; white-space-collapse: preserve;&quot;&gt;&lt;div style=&quot;line-height: 19px;&quot;&gt;&lt;div style=&quot;line-height: 19px;&quot;&gt;&lt;div style=&quot;line-height: 19px;&quot;&gt;&lt;div&gt;&lt;span style=&quot;color: #800000;&quot;&gt;env&lt;/span&gt;:&lt;/div&gt;&lt;div&gt;&amp;nbsp; &lt;span style=&quot;color: #800000;&quot;&gt;DOCKER_USER&lt;/span&gt;: ${{ secrets.DOCKER_USER }}&lt;/div&gt;&lt;div&gt;&amp;nbsp; &lt;span style=&quot;color: #800000;&quot;&gt;DOCKER_PASSWORD&lt;/span&gt;: ${{ secrets.DOCKER_PASSWORD }}&lt;/div&gt;&lt;br&gt;&lt;div&gt;&amp;nbsp; &lt;span style=&quot;color: #800000;&quot;&gt;MODE&lt;/span&gt;: &lt;span style=&quot;color: #0000ff;&quot;&gt;Cloud&lt;/span&gt;&lt;/div&gt;&lt;div&gt;&amp;nbsp; &lt;span style=&quot;color: #800000;&quot;&gt;PROJECT_ID&lt;/span&gt;: ${{ secrets.PROJECT_ID }}&lt;/div&gt;&lt;div&gt;&amp;nbsp; &lt;span style=&quot;color: #800000;&quot;&gt;OAUTH2_CLIENT_ID&lt;/span&gt;: ${{ secrets.OAUTH2_CLIENT_ID }}&lt;/div&gt;&lt;div&gt;&amp;nbsp; &lt;span style=&quot;color: #800000;&quot;&gt;OAUTH2_CLIENT_SECRET&lt;/span&gt;: ${{ secrets.OAUTH2_CLIENT_SECRET}}&lt;/div&gt;&lt;div&gt;&amp;nbsp; &lt;span style=&quot;color: #800000;&quot;&gt;OAUTH2_REDIRECT_URI&lt;/span&gt;: &lt;span style=&quot;color: #0000ff;&quot;&gt;https://ivanenkomak.com/auth/google/callback&lt;/span&gt;&lt;/div&gt;&lt;div&gt;&amp;nbsp; &lt;span style=&quot;color: #800000;&quot;&gt;GOOGLE_SERVICE_ACCOUNT_KEY&lt;/span&gt;: ${{ secrets.GOOGLE_SERVICE_ACCOUNT_KEY}}&lt;/div&gt;&lt;div&gt;&amp;nbsp; &lt;span style=&quot;color: #800000;&quot;&gt;GOOGLE_APPLICATION_CREDENTIALS&lt;/span&gt;: &lt;span style=&quot;color: #0000ff;&quot;&gt;/secrets/service-account.json&lt;/span&gt;&lt;/div&gt;&lt;div&gt;&amp;nbsp; &lt;span style=&quot;color: #800000;&quot;&gt;REDIRECT_URI&lt;/span&gt;: &lt;span style=&quot;color: #0000ff;&quot;&gt;https://ivanenkomak.com/callback&lt;/span&gt;&lt;/div&gt;&lt;div&gt;&amp;nbsp; &lt;span style=&quot;color: #800000;&quot;&gt;ALLOW_ORIGIN&lt;/span&gt;: &lt;span style=&quot;color: #0000ff;&quot;&gt;https://ivanenkomak.com&lt;/span&gt;&lt;/div&gt;&lt;div&gt;&amp;nbsp; &lt;span style=&quot;color: #800000;&quot;&gt;APISERVER_APPLICATIONURL&lt;/span&gt;: &lt;span style=&quot;color: #0000ff;&quot;&gt;0.0.0.0:8080&lt;/span&gt;&lt;/div&gt;&lt;/div&gt;&lt;/div&gt;&lt;/div&gt;&lt;/div&gt;" style="html=1;points=[];perimeter=orthogonalPerimeter;fillColor=strokeColor;align=left;verticalAlign=top;spacingLeft=10;" parent="1" vertex="1">
          <mxGeometry x="123" y="730" width="5" height="280" as="geometry" />
        </mxCell>
        <mxCell id="ihgoZGqsxhSvgFZBb7C3-1" value="" style="endArrow=classic;html=1;rounded=0;edgeStyle=orthogonalEdgeStyle;curved=1;" edge="1" parent="1" source="gjvv1DMt-OwgNYtcfXE_-8" target="ihgoZGqsxhSvgFZBb7C3-2">
          <mxGeometry width="50" height="50" relative="1" as="geometry">
            <mxPoint x="570" y="530" as="sourcePoint" />
            <mxPoint x="100" y="330" as="targetPoint" />
            <Array as="points">
              <mxPoint x="10" y="658" />
              <mxPoint x="10" y="210" />
            </Array>
          </mxGeometry>
        </mxCell>
        <mxCell id="ihgoZGqsxhSvgFZBb7C3-2" value="compose.yaml" style="dashed=0;outlineConnect=0;html=1;align=center;labelPosition=center;verticalLabelPosition=bottom;verticalAlign=top;shape=mxgraph.webicons.json;gradientColor=#DFDEDE" vertex="1" parent="1">
          <mxGeometry x="100.5" y="180" width="50" height="60" as="geometry" />
        </mxCell>
        <mxCell id="ihgoZGqsxhSvgFZBb7C3-3" value="secrets" style="dashed=0;outlineConnect=0;html=1;align=center;labelPosition=center;verticalLabelPosition=bottom;verticalAlign=top;shape=mxgraph.weblogos.github" vertex="1" parent="1">
          <mxGeometry x="590" y="620" width="75" height="75" as="geometry" />
        </mxCell>
        <mxCell id="ihgoZGqsxhSvgFZBb7C3-4" value="" style="endArrow=classic;html=1;rounded=0;edgeStyle=orthogonalEdgeStyle;curved=1;" edge="1" parent="1" target="ihgoZGqsxhSvgFZBb7C3-3">
          <mxGeometry width="50" height="50" relative="1" as="geometry">
            <mxPoint x="311" y="758" as="sourcePoint" />
            <mxPoint x="550" y="480" as="targetPoint" />
            <Array as="points">
              <mxPoint x="311" y="658" />
            </Array>
          </mxGeometry>
        </mxCell>
      </root>
    </mxGraphModel>
  </diagram>
</mxfile>
